<svg width="24" height="22" viewBox="0 0 24 22" fill="none" xmlns="http://www.w3.org/2000/svg">
<path fill-rule="evenodd" clip-rule="evenodd" d="M14.4465 0.817443C12.3174 0.0968014 10.016 0.0617062 7.86585 0.717041C5.71576 1.37238 3.82514 2.68518 2.45997 4.47082C1.09473 6.25653 0.323614 8.42517 0.25501 10.6719C0.186407 12.9186 0.823797 15.1303 2.07752 16.996C3.33124 18.8616 5.13819 20.2873 7.24433 21.0726C9.35047 21.8579 11.6497 21.9633 13.8189 21.3738C14.7515 21.1204 15.3022 20.1589 15.0487 19.2262C14.7953 18.2935 13.8337 17.7429 12.9011 17.9963C11.4382 18.3938 9.88752 18.3228 8.46711 17.7932C7.0467 17.2635 5.82801 16.302 4.98249 15.0438C4.13697 13.7856 3.7071 12.2939 3.75336 10.7787C3.79963 9.26349 4.31971 7.8009 5.24042 6.59662C6.16114 5.39233 7.43622 4.50696 8.8863 4.06494C10.3364 3.62299 11.8885 3.64667 13.3244 4.13269C14.7603 4.61871 16.0078 5.5426 16.8913 6.77447C17.6168 7.78589 18.0669 8.96313 18.2048 10.1912L17.1955 10.4814C16.415 10.7059 16.2134 11.7178 16.8483 12.2242L20.7051 15.3008C21.2434 15.7301 22.0444 15.4998 22.2723 14.85L23.9055 10.1946C24.1743 9.42828 23.4659 8.67804 22.6854 8.90253L21.6007 9.21448C21.3298 7.6062 20.695 6.07251 19.7354 4.7345C18.4253 2.90802 16.5756 1.53809 14.4465 0.817443Z" fill="#416586"/>
</svg>
